<svg version="1.1" id="Layer_1" xmlns="http://www.w3.org/2000/svg" xmlns:xlink="http://www.w3.org/1999/xlink" x="0px" y="0px"
	 width="100%" viewBox="0 0 800 688" enable-background="new 0 0 800 688" xml:space="preserve">
<path fill="#000000" opacity="1.000000" stroke="none" 
	d="
M234.668839,556.386719 
	C216.577637,545.787231 204.160355,529.979248 191.823975,514.058655 
	C187.042892,507.888458 181.789215,502.151062 175.570480,497.309631 
	C172.180649,494.670593 167.896774,494.416656 164.321472,492.199219 
	C158.514053,488.597443 153.842575,480.737457 155.031540,475.238281 
	C156.791168,467.099670 164.566193,459.494598 172.090866,460.298370 
	C181.232162,461.274841 189.482529,465.263916 196.871185,471.008392 
	C210.178070,481.354218 219.814377,494.980988 230.387741,507.783508 
	C237.089294,515.897827 244.256714,523.559021 253.748978,528.458801 
	C267.054077,535.326721 281.081421,538.654175 296.073395,535.759766 
	C300.161102,534.970520 304.174683,533.852783 308.371155,533.725586 
	C311.922516,533.618042 313.950806,532.067871 313.833282,528.182739 
	C313.500458,517.181335 313.789062,506.265289 316.833313,495.519714 
	C317.837433,491.975372 319.424927,488.679413 320.342194,485.138000 
	C321.639740,480.128479 320.683258,479.180908 315.752441,478.147400 
	C305.540100,476.006805 295.596710,472.899292 285.835358,469.138428 
	C275.617889,465.201813 265.843750,460.538177 256.515991,454.744476 
	C239.695923,444.297119 226.230881,430.639618 215.390732,414.160522 
	C205.974976,399.846802 200.028046,384.053802 195.712662,367.684998 
	C192.237045,354.501617 191.518311,340.795685 189.916458,327.271149 
	C187.995651,311.053680 189.272797,294.888062 192.432510,279.081543 
	C196.332840,259.570007 204.153717,241.422012 216.681473,225.684326 
	C219.843826,221.711670 220.490921,218.251755 219.573639,213.019714 
	C216.849960,197.484009 214.608536,181.879852 217.525208,165.887329 
	C219.556839,154.747650 221.533035,143.685043 225.987381,133.264954 
	C227.886383,128.822632 230.876129,125.151840 235.846527,123.285049 
	C241.614334,121.118774 247.473785,119.960197 253.477722,121.023781 
	C266.238007,123.284279 279.012939,125.819389 290.887115,131.172333 
	C302.537964,136.424576 314.210999,141.780670 324.831116,148.985260 
	C330.661774,152.940735 336.106659,153.947845 343.396210,152.422668 
	C371.656128,146.510010 400.188049,143.994583 429.211700,146.349091 
	C446.851349,147.780075 464.250916,149.979523 481.508759,153.691803 
	C484.036163,154.235443 486.361206,153.814194 488.631470,152.309906 
	C500.554443,144.409698 513.177124,137.790817 526.187988,131.860062 
	C539.946228,125.588654 554.491577,121.359619 569.394409,121.202011 
	C587.058899,121.015190 591.058472,125.692329 596.240234,142.296951 
	C600.756409,156.768463 603.725037,171.712921 602.857300,186.984711 
	C602.339600,196.095078 601.014038,205.224960 599.173462,214.165268 
	C598.337585,218.224899 598.651978,221.122971 601.194092,224.235291 
	C611.427368,236.763718 618.504700,251.084259 623.171875,266.416595 
	C628.945251,285.383301 630.535706,304.940796 628.881226,324.721558 
	C627.480408,341.470032 625.538147,358.110565 620.951538,374.378784 
	C612.037170,405.996704 595.184326,432.028442 568.023865,451.000183 
	C554.599121,460.377441 539.951965,467.141724 524.337402,472.006226 
	C516.746155,474.371216 509.353058,477.380890 501.360016,478.230225 
	C497.878204,478.600220 498.045654,480.913452 498.689362,483.370178 
	C499.986786,488.321747 501.813141,493.081879 502.924194,498.144928 
	C504.441742,505.060272 505.217285,511.892944 505.219116,518.917053 
	C505.227234,550.415344 505.077820,581.916687 505.508423,613.409851 
	C505.626373,622.037842 496.437225,630.065186 489.569366,630.297058 
	C479.582611,630.634338 471.749542,622.470703 472.135406,612.136169 
	C473.323242,580.319275 473.020691,548.477417 472.442444,516.669861 
	C472.180237,502.245941 465.205902,489.641998 455.537537,478.740936 
	C450.498840,473.059814 447.863800,466.852966 452.188782,459.250336 
	C455.976654,452.591980 461.280212,448.951569 468.969788,448.804504 
	C480.503784,448.583954 491.546478,445.669220 502.666412,442.935425 
	C512.826111,440.437683 522.636353,437.212128 532.133606,432.803619 
	C547.839233,425.513336 560.990479,415.184692 571.178345,401.163361 
	C579.446655,389.783813 584.652649,377.121704 588.889954,363.665314 
	C594.061523,347.242188 595.814575,330.536224 596.566772,313.627563 
	C597.831177,285.202484 588.301514,260.199463 569.786743,239.042603 
	C561.747437,229.856064 561.476440,221.364365 565.493652,210.794601 
	C569.975708,199.001846 570.835022,186.507980 569.387146,173.938858 
	C568.949280,170.138123 568.291504,166.362091 567.705078,162.579315 
	C567.029724,158.222061 564.978638,155.580093 560.052490,156.039429 
	C551.088196,156.875244 543.197937,160.919189 535.215210,164.477921 
	C521.992981,170.372467 509.751282,178.075958 497.571075,185.872314 
	C493.705933,188.346313 489.438629,188.845306 484.653442,187.619644 
	C456.859680,180.500565 428.709167,174.773331 399.899445,176.403870 
	C381.044189,177.471024 362.082520,179.745453 343.958435,185.684784 
	C333.248901,189.194336 324.094391,188.326935 314.443573,181.725052 
	C298.982574,171.148529 282.232056,162.684891 264.248871,156.977600 
	C255.523621,154.208481 252.983582,156.077454 251.176865,164.896271 
	C248.520416,177.862732 248.826065,190.743118 251.277710,203.603333 
	C252.174713,208.308472 253.483627,213.083694 255.529694,217.387131 
	C258.785492,224.234940 256.425201,229.615631 252.343109,234.854813 
	C246.631149,242.185883 240.574707,249.202118 235.989731,257.418701 
	C226.160934,275.032532 221.381012,293.767090 222.627853,313.877350 
	C223.091187,321.350769 223.039352,328.843536 224.003494,336.311707 
	C227.517242,363.528595 235.602509,388.785339 254.478485,409.566803 
	C263.301056,419.279999 274.002747,426.381470 285.683105,432.254028 
	C292.223358,435.542236 298.964783,438.250885 305.815155,440.696533 
	C310.628326,442.414856 315.588043,443.853149 320.592651,444.877472 
	C330.658661,446.937653 340.688873,449.180237 351.010284,449.891937 
	C360.247559,450.528900 367.067230,456.574524 368.814545,465.393158 
	C369.787445,470.303558 367.405243,474.557159 364.377563,478.142578 
	C357.123322,486.733002 351.023865,495.869415 348.086182,506.918152 
	C347.181305,510.321533 346.236816,513.642273 346.248138,517.185608 
	C346.347260,548.182556 346.318268,579.180603 346.604309,610.175781 
	C346.677216,618.076172 344.808807,623.900146 337.454285,628.464417 
	C327.893402,634.398010 313.757660,624.016968 313.829437,614.314026 
	C313.934204,600.148987 313.911194,585.982971 313.908173,571.817322 
	C313.907013,566.315186 313.097412,565.610596 307.745056,566.886108 
	C290.346161,571.032349 272.989960,570.220154 255.886520,565.707764 
	C248.574585,563.778625 241.416061,560.843994 234.668839,556.386719 
z"/>
</svg>