<svg version="1.1" id="Layer_1" xmlns="http://www.w3.org/2000/svg" xmlns:xlink="http://www.w3.org/1999/xlink" x="0px" y="0px"
	 width="100%" viewBox="0 0 400 400" enable-background="new 0 0 400 400" xml:space="preserve">
<path fill="#000000" opacity="1.000000" stroke="none" 
	d="
M245.908142,198.340607 
	C229.060486,198.580383 216.435913,211.367325 216.367538,228.184372 
	C216.250336,257.012634 216.215607,285.842651 216.450027,314.669495 
	C216.491852,319.812012 214.880875,321.225861 209.899689,321.115082 
	C195.908585,320.803864 181.903839,320.808685 167.910690,321.049927 
	C163.046722,321.133759 161.637726,319.425659 161.685898,314.686188 
	C162.110962,272.867920 162.385391,231.047852 162.579239,189.227737 
	C162.618607,180.737900 162.228134,172.241165 161.839859,163.756592 
	C161.679977,160.262695 162.576385,158.567551 166.485779,158.606430 
	C181.648468,158.757309 196.813889,158.719131 211.977478,158.623428 
	C215.190048,158.603149 216.362778,159.802475 216.391510,163.014481 
	C216.430771,167.401443 215.719193,171.888855 216.915222,176.035141 
	C219.385025,176.671677 220.059753,174.987396 220.983948,173.968307 
	C237.794601,155.431610 258.714569,151.436218 282.038818,157.233582 
	C304.759094,162.880798 317.282013,178.753403 323.192139,200.511642 
	C325.370361,208.531021 326.385956,216.779770 326.366516,225.153885 
	C326.297302,254.982300 326.229950,284.811829 326.455750,314.638733 
	C326.494171,319.717468 325.016235,321.242920 319.958099,321.126587 
	C305.967712,320.804840 291.963257,320.858948 277.969055,321.071716 
	C273.262451,321.143280 271.605225,319.678375 271.632629,314.797180 
	C271.795349,285.803711 271.802704,256.807343 271.544159,227.814804 
	C271.467102,219.174789 269.126556,210.990662 262.692261,204.626907 
	C258.196472,200.180405 252.593658,198.377884 245.908142,198.340607 
z"/>
<path fill="#000000" opacity="1.000000" stroke="none" 
	d="
M78.660988,268.999817 
	C78.659996,234.008255 78.755463,199.516098 78.548393,165.025757 
	C78.518250,160.005157 79.882210,158.423126 84.981300,158.541016 
	C99.303558,158.872177 113.639801,158.780777 127.967148,158.595047 
	C132.117569,158.541260 133.412445,159.998093 133.404495,164.082123 
	C133.306168,214.569595 133.302643,265.057404 133.421494,315.544800 
	C133.431335,319.724854 131.989319,321.076294 127.942444,321.041443 
	C113.114189,320.913727 98.283386,320.956787 83.454788,321.081909 
	C79.738350,321.113251 78.566399,319.583191 78.597115,315.987915 
	C78.729485,300.492859 78.657585,284.996002 78.660988,268.999817 
z"/>
<path fill="#000000" opacity="1.000000" stroke="none" 
	d="
M78.509201,122.172195 
	C72.456512,106.728584 76.360428,93.102119 88.729752,85.579117 
	C102.070930,77.465034 120.631607,79.858040 130.221069,91.257446 
	C137.399033,99.790207 138.354385,109.831100 134.645950,119.894142 
	C130.723969,130.536713 122.144043,136.121735 111.033928,137.232376 
	C97.548088,138.580475 85.893494,135.265778 78.509201,122.172195 
z"/>
</svg>